<svg xmlns="http://www.w3.org/2000/svg" aria-hidden="true" style="position:absolute;width:0;height:0;overflow:hidden">
  <defs>
    <symbol id="icon-close" viewBox="0 0 32 32">
      <path fill="#fff" d="M5.21 5.21a2.182 2.182 0 0 1 3.086 0l7.717 7.717L23.73 5.21a2.186 2.186 0 0 1 3.059.026 2.181 2.181 0 0 1 .027 3.059l-7.717 7.717 7.717 7.717a2.18 2.18 0 0 1-.027 3.059 2.181 2.181 0 0 1-3.059.026l-7.717-7.717-7.717 7.717a2.182 2.182 0 0 1-3.085-3.085l7.717-7.717-7.717-7.717a2.182 2.182 0 0 1 0-3.086z" style="fill:var(--color1, #fff)"/>
    </symbol>
    <symbol id="icon-cross" viewBox="0 0 30 32">
      <path stroke-linecap="round" stroke-linejoin="round" stroke-width="3.388" d="M1.882 29.559 28.235 3.206M28.235 29.559 1.882 3.206"/>
    </symbol>
    <symbol id="icon-ellipse" viewBox="0 0 32 32">
      <path fill="#fff" d="M32 16c0 8.837-7.163 16-16 16S0 24.837 0 16 7.163 0 16 0s16 7.163 16 16z" style="fill:var(--color1, #fff)"/>
    </symbol>
    <symbol id="icon-menu" viewBox="0 0 32 32">
      <path fill="#fff" d="M26.667 23.333a2 2 0 0 1 .191 3.989l-.192.009H5.333a2.001 2.001 0 0 1-1.512-3.308 2 2 0 0 1 1.32-.682l.192-.009h21.333zm0-9.333a2 2 0 0 1 0 4H5.334a2 2 0 0 1 0-4h21.333zm0-9.333a2 2 0 0 1 0 4H5.334a2 2 0 0 1 0-4h21.333z" style="fill:var(--color1, #fff)"/>
    </symbol>
  </defs>
</svg>
