<svg xmlns="http://www.w3.org/2000/svg" aria-hidden="true" style="position:absolute;width:0;height:0;overflow:hidden">
  <defs>
    <symbol id="icon-close" viewBox="0 0 32 32">
      <path fill="#fff" d="M5.21 5.21a2.182 2.182 0 0 1 3.086 0l7.717 7.717L23.73 5.21a2.186 2.186 0 0 1 3.059.026 2.181 2.181 0 0 1 .027 3.059l-7.717 7.717 7.717 7.717a2.18 2.18 0 0 1-.027 3.059 2.181 2.181 0 0 1-3.059.026l-7.717-7.717-7.717 7.717a2.182 2.182 0 0 1-3.085-3.085l7.717-7.717-7.717-7.717a2.182 2.182 0 0 1 0-3.086z" style="fill:var(--color1, #fff)"/>
    </symbol>
    <symbol id="icon-cross" viewBox="0 0 30 32">
      <path stroke-linecap="round" stroke-linejoin="round" stroke-width="3.388" d="M1.882 29.559 28.235 3.206M28.235 29.559 1.882 3.206"/>
    </symbol>
    <symbol id="icon-ellipse" viewBox="0 0 32 32">
      <path fill="currentColor" d="M32 16c0 8.837-7.163 16-16 16S0 24.837 0 16 7.163 0 16 0s16 7.163 16 16z" />
    </symbol>
    <symbol id="icon-menu" viewBox="0 0 32 32">
      <path fill="#fff" d="M26.667 23.333a2 2 0 0 1 .191 3.989l-.192.009H5.333a2.001 2.001 0 0 1-1.512-3.308 2 2 0 0 1 1.32-.682l.192-.009h21.333zm0-9.333a2 2 0 0 1 0 4H5.334a2 2 0 0 1 0-4h21.333zm0-9.333a2 2 0 0 1 0 4H5.334a2 2 0 0 1 0-4h21.333z" style="fill:var(--color1, #fff)"/>
    </symbol>
    <symbol id="icon-left-arrow" viewBox="0 0 80 48">
      <path fill="url(#a)" d="M23.074 46.79C16.188 41.507 7.403 32.485.636 25.124c-.594-.712-1.069-1.425 0-2.79C7.403 14.974 16.188 5.951 23.074.668c3.858-3.028 2.968 5.223 3.858 5.223 8.667.06 40.246.653 48.913 1.722C77.863 7.909 80 18.238 80 23.58c0 5.342-2.137 15.967-4.155 16.205-8.667 1.128-40.246 1.721-48.913 1.721-.89 0 0 8.251-3.858 5.283Z"/>
      <path fill="url(#b)" d="M7.343 23.818C5.978 22.156 22.54 7.672 23.073 7.909c.594.179 0 3.087.713 3.384.653.297 45.826-.237 48.2 1.128 1.188.653 2.909 6.47 2.909 11.872 0 5.342-1.721 10.21-2.909 10.863-2.374 1.365-47.547.83-48.2 1.128-.712.297-.119 3.205-.712 3.383-.535.238-17.096-14.246-15.73-15.849Z" opacity=".5" style="mix-blend-mode:screen"/>
      <path fill="url(#c)" d="M76.498 8.86c-.535-1.188-3.918 2.492-3.562 3.323.356.831 5.699 12.585 0 22.973 0 0-.06.83-2.493 1.009-2.374.178-45.589.06-46.3.593-.713.535-.298 3.621-.773 4.037-.474.415 1.544 6.767 1.84 6.41.357-.415.772-5.757 1.485-6.054.653-.356 45.885-.178 49.15-1.84 2.671-1.365 6.233-18.283.653-30.452Z" opacity=".7" style="mix-blend-mode:multiply"/>
      <path fill="url(#d)" d="M5.681 30.05c1.365-.652 3.8.06 5.105.654 2.018.83 3.74 2.374 5.342 3.799 1.663 1.424 3.384 2.79 5.046 4.333.831.712 1.187 1.247 1.484 2.256.297 1.187 1.543 4.392.772 5.46-.772-.474-1.543-1.127-2.197-1.78-2.552-2.434-5.045-4.986-7.716-7.301a262.708 262.708 0 0 1-3.384-3.087c-1.484-1.425-3.146-2.85-4.452-4.333Z" opacity=".9" style="mix-blend-mode:multiply"/>
      <path fill="url(#e)" d="M25.151.549c-.653.653-1.365 7.123-1.365 7.123s-.119 3.265.772 3.265c.95 0 1.602-3.206 1.84-4.215.178-1.009-.712-6.648-1.247-6.173Z" opacity=".7" style="mix-blend-mode:multiply"/>
      <path fill="url(#f)" d="M21.827 7.435c.594-.475 2.79-5.877 1.484-5.936-1.247-.06-21.607 19.292-22.26 21.25-.712 1.96 5.105 0 5.105 0s5.164-6.588 15.671-15.314Z" opacity=".4" style="mix-blend-mode:screen"/>
      <path fill="url(#g)" d="M28.475 10.937c.416-.653 7.836-3.74 10.507-4.096 2.671-.415 36.27.594 36.27 1.069 0 .415-2.85 3.917-3.503 3.799-.712-.06-35.379-1.781-43.274-.772Z" opacity=".4" style="mix-blend-mode:screen"/>
      <path fill="url(#h)" d="M21.827 38.836c.08.04.139.08.178.119.594.356 1.187 0 1.365-.534 0 .653-.059 1.187-.296 1.246-.06.06-.535-.237-1.247-.83Z" opacity=".5" style="mix-blend-mode:screen"/>
      <path fill="#fff" d="M19.571 11.115c-2.552 1.9-4.511 4.452-6.767 6.648-1.543 1.484-3.264 3.028-3.858 5.165-.534 1.78.89 4.867 2.137 6.114-2.493-2.553-4.215-4.69-3.74-5.224C5.978 22.156 22.54 7.672 23.073 7.909c.238.06.297.653.297 1.247 0-.06-1.959.772-2.137.831a17.42 17.42 0 0 0-1.662 1.128ZM67.831 12.836c-3.265-.653-28.137-.356-31.401-.653-1.781-.178-3.562-.237-5.283-.356-1.781-.06-3.621-.415-5.343-.415 5.877.06 44.164-.119 46.182 1.009 1.188.653 2.909 6.47 2.909 11.872 0 .633-.04 1.286-.119 1.959.238-2.553-.83-5.64-1.602-8.133-.653-2.255-1.96-4.51-4.571-5.104a7.034 7.034 0 0 0-.772-.179Z"/>
      <path fill="url(#i)" d="M74.48 33.85c0-1.9.89-3.8 1.127-5.64.238-1.78.416-4.807.178-6.588-.712-4.334-.771-5.877-.474-6.945.356-1.247.89-2.553 1.84-3.562a.93.93 0 0 1 .178-.237c3.918 10.625 1.662 23.862-.653 27.543-.713-1.425-2.197-4.096-2.197-4.571Z" opacity=".9" style="mix-blend-mode:multiply"/>
      <path fill="url(#j)" d="M23.37 40.795c1.247-1.01-.653-4.096 2.553-3.977 1.543.06 48.14.831 47.844 2.612-12.11 1.246-45.885 1.543-46.954 1.484-1.187-.06-.83 4.927-1.602 6.292-.178.415-2.316-5.995-1.84-6.411Z" opacity=".9" style="mix-blend-mode:multiply"/>
      <path fill="url(#k)" d="M23.37 40.795c.772-.653-.118-3.146.713-3.324.593-.178 1.365 1.365 1.484 1.78.356 1.425.356 2.969.297 4.393-.06 1.128.178 2.612-.653 3.562-.297.356-2.315-5.995-1.84-6.411Z" opacity=".7" style="mix-blend-mode:multiply"/>
      <path fill="url(#l)" d="M1.11 23.402c5.046-1.424 8.786-5.698 12.288-9.141 2.256-2.196 4.393-4.57 6.648-6.826 1.366-1.366 2.672-2.79 3.562-4.452-.297 1.662-1.425 4.155-1.78 4.452C11.32 16.16 6.155 22.75 6.155 22.75s-4.215 1.424-5.046.652Z" opacity=".4" style="mix-blend-mode:screen"/>
      <path fill="url(#m)" d="M29.188 10.937h-.713c.238-.356 2.612-1.484 5.165-2.434 5.46 2.137 33.598 3.206 39.534 2.137-.594.653-1.188 1.128-1.425 1.069-.712-.06-33.835-1.722-42.561-.772Z" opacity=".4" style="mix-blend-mode:screen"/>
      <path fill="url(#n)" d="M24.38 8.444c.83-.475 1.187-1.484 1.484-2.256.158-.514.296-1.029.415-1.543.119.95.178 1.721.119 2.077-.238 1.01-.89 4.215-1.84 4.215-.535 0-.713-1.306-.772-2.256.198-.04.396-.118.594-.237Z" opacity=".7" style="mix-blend-mode:multiply"/>
      <path fill="#fff" d="M10.727 17.704c.712-.475 1.068-5.818 1.068-5.818s.238 5.343.95 5.818c.89.534 5.164.653 5.164.653s-5.223.415-5.46.89c-.476.712-.654 6.233-.654 6.233s-.475-5.64-.89-6.41c-.297-.476-5.58-.713-5.58-.713s4.511-.119 5.402-.653Z"/>
  <defs>
      <linearGradient id="a" x1="25.925" x2="25.925" y1="5.799" y2="42.419" gradientUnits="userSpaceOnUse">
       <stop stop-color="#fff"/>
       <stop offset="1" stop-color="#730EFF"/>
      </linearGradient>
    <linearGradient id="b" x1="44.983" x2="59.357" y1="50.201" y2="7.924" gradientUnits="userSpaceOnUse">
      <stop stop-color="#730EFF"/>
      <stop offset="1" stop-color="#fff"/>
    </linearGradient>
    <linearGradient id="c" x1="-7.785" x2="96.104" y1="66.558" y2="73.935" gradientUnits="userSpaceOnUse">
      <stop stop-color="#730EFF"/>
      <stop offset="1" stop-color="#fff"/>
    </linearGradient>
    <linearGradient id="d" x1="-4.367" x2="29.499" y1="47.118" y2="49.523" gradientUnits="userSpaceOnUse">
      <stop stop-color="#730EFF"/>
      <stop offset="1" stop-color="#fff"/>
    </linearGradient>
    <linearGradient id="e" x1="21.841" x2="27.807" y1="5.943" y2="6.367" gradientUnits="userSpaceOnUse">
      <stop stop-color="#730EFF"/>
      <stop offset="1" stop-color="#fff"/>
    </linearGradient>
    <linearGradient id="f" x1="-11.719" x2="31.177" y1="23.329" y2="26.375" gradientUnits="userSpaceOnUse">
      <stop stop-color="#730EFF"/>
      <stop offset="1" stop-color="#fff"/>
    </linearGradient>
    <linearGradient id="g" x1="-8.635" x2="74.518" y1="225.143" y2="231.046" gradientUnits="userSpaceOnUse">
      <stop stop-color="#730EFF"/>
      <stop offset="1" stop-color="#fff"/>
    </linearGradient>
    <linearGradient id="h" x1="13.464" x2="54.547" y1="39.406" y2="42.323" gradientUnits="userSpaceOnUse">
      <stop stop-color="#730EFF"/>
      <stop offset="1" stop-color="#fff"/>
    </linearGradient>
    <linearGradient id="i" x1="21.277" x2="93.131" y1="21.317" y2="26.419" gradientUnits="userSpaceOnUse">
      <stop stop-color="#730EFF"/>
      <stop offset="1" stop-color="#fff"/>
    </linearGradient>
    <linearGradient id="j" x1="-235.132" x2="729.559" y1="146.182" y2="214.68" gradientUnits="userSpaceOnUse">
      <stop stop-color="#730EFF"/>
      <stop offset="1" stop-color="#fff"/>
    </linearGradient>
    <linearGradient id="k" x1="6.991" x2="68.735" y1="41.502" y2="45.887" gradientUnits="userSpaceOnUse">
      <stop stop-color="#730EFF"/>
      <stop offset="1" stop-color="#fff"/>
    </linearGradient>
    <linearGradient id="l" x1="-11.714" x2="31.007" y1="24.639" y2="27.672" gradientUnits="userSpaceOnUse">
      <stop stop-color="#730EFF"/>
      <stop offset="1" stop-color="#fff"/>
    </linearGradient>
    <linearGradient id="m" x1="-15.461" x2="70.217" y1="313.772" y2="319.857" gradientUnits="userSpaceOnUse">
      <stop stop-color="#730EFF"/>
      <stop offset="1" stop-color="#fff"/>
    </linearGradient>
    <linearGradient id="n" x1="21.978" x2="27.583" y1="8.21" y2="8.608" gradientUnits="userSpaceOnUse">
      <stop stop-color="#730EFF"/>
      <stop offset="1" stop-color="#fff"/>
    </linearGradient>
  </defs>
</symbol>
<symbol id="icon-right-arrow" viewBox="0 0 80 48">
  <path fill="url(#a)" d="M56.926 46.79c6.886-5.283 15.671-14.305 22.439-21.666.593-.712 1.068-1.425 0-2.79C72.597 14.974 63.812 5.951 56.926.668 53.068-2.36 53.958 5.89 53.068 5.89c-8.667.06-40.246.653-48.913 1.722C2.137 7.909 0 18.238 0 23.58c0 5.342 2.137 15.967 4.155 16.205 8.667 1.128 40.246 1.721 48.913 1.721.89 0 0 8.251 3.858 5.283Z"/>
  <path fill="url(#b)" d="M72.657 23.818C74.022 22.156 57.46 7.672 56.927 7.91c-.594.178 0 3.086-.713 3.383-.653.297-45.826-.237-48.2 1.128-1.188.653-2.909 6.47-2.909 11.872 0 5.343 1.721 10.21 2.909 10.863 2.374 1.365 47.547.831 48.2 1.128.712.297.119 3.205.712 3.383.535.238 17.096-14.246 15.73-15.849Z" opacity=".5" style="mix-blend-mode:screen"/>
  <path fill="url(#c)" d="M3.502 8.86c.535-1.188 3.918 2.492 3.562 3.323-.356.831-5.699 12.585 0 22.973 0 0 .06.83 2.493 1.009 2.374.178 45.589.06 46.3.593.713.535.298 3.621.773 4.037.474.415-1.544 6.767-1.84 6.41-.357-.415-.772-5.757-1.485-6.054-.653-.356-45.885-.178-49.15-1.84-2.671-1.365-6.233-18.283-.653-30.452Z" opacity=".7" style="mix-blend-mode:multiply"/>
  <path fill="url(#d)" d="M74.319 30.05c-1.365-.652-3.8.06-5.105.654-2.018.83-3.74 2.374-5.343 3.799-1.662 1.424-3.383 2.79-5.045 4.333-.831.712-1.187 1.247-1.484 2.256-.297 1.187-1.544 4.392-.772 5.46.772-.474 1.544-1.127 2.197-1.78 2.552-2.434 5.045-4.986 7.716-7.301a262.708 262.708 0 0 0 3.384-3.087c1.484-1.425 3.146-2.85 4.452-4.333Z" opacity=".9" style="mix-blend-mode:multiply"/>
  <path fill="url(#e)" d="M54.849.549c.653.653 1.365 7.123 1.365 7.123s.119 3.265-.772 3.265c-.95 0-1.602-3.206-1.84-4.215-.178-1.009.713-6.648 1.247-6.173Z" opacity=".7" style="mix-blend-mode:multiply"/>
  <path fill="url(#f)" d="M58.173 7.435c-.594-.475-2.79-5.877-1.484-5.936 1.246-.06 21.607 19.292 22.26 21.25.712 1.96-5.105 0-5.105 0S68.68 16.162 58.173 7.436Z" opacity=".4" style="mix-blend-mode:screen"/>
  <path fill="url(#g)" d="M51.525 10.937c-.416-.653-7.836-3.74-10.507-4.096-2.671-.415-36.27.594-36.27 1.069 0 .415 2.85 3.917 3.503 3.799.712-.06 35.379-1.781 43.274-.772Z" opacity=".4" style="mix-blend-mode:screen"/>
  <path fill="url(#h)" d="M58.173 38.836a.69.69 0 0 0-.178.119c-.594.356-1.187 0-1.365-.534 0 .653.059 1.187.296 1.246.06.06.535-.237 1.247-.83Z" opacity=".5" style="mix-blend-mode:screen"/>
  <path fill="#fff" d="M60.429 11.115c2.552 1.9 4.51 4.452 6.767 6.648 1.543 1.484 3.264 3.028 3.858 5.165.534 1.78-.89 4.867-2.137 6.114 2.493-2.553 4.215-4.69 3.74-5.224C74.022 22.156 57.46 7.672 56.927 7.91c-.238.059-.297.653-.297 1.246 0-.06 1.958.772 2.136.831.594.356 1.148.732 1.663 1.128ZM12.169 12.836c3.265-.652 28.137-.356 31.401-.652 1.781-.178 3.562-.238 5.283-.357 1.781-.059 3.621-.415 5.343-.415-5.877.06-44.164-.119-46.182 1.009-1.188.653-2.909 6.47-2.909 11.872 0 .633.04 1.286.119 1.959-.238-2.553.83-5.64 1.602-8.132.653-2.256 1.96-4.512 4.571-5.105.277-.08.534-.139.772-.179Z"/>
  <path fill="url(#i)" d="M5.52 33.85c0-1.9-.89-3.799-1.127-5.64-.238-1.78-.416-4.807-.178-6.588.712-4.333.771-5.877.474-6.945-.356-1.247-.89-2.553-1.84-3.562a.93.93 0 0 0-.178-.237C-1.247 21.503 1.01 34.74 3.324 38.42c.713-1.425 2.197-4.096 2.197-4.57Z" opacity=".9" style="mix-blend-mode:multiply"/>
  <path fill="url(#j)" d="M56.63 40.795c-1.247-1.01.653-4.096-2.553-3.977-1.543.06-48.14.83-47.844 2.612 12.11 1.246 45.885 1.543 46.954 1.484 1.187-.06.83 4.926 1.602 6.292.178.415 2.316-5.996 1.84-6.411Z" opacity=".9" style="mix-blend-mode:multiply"/>
  <path fill="url(#k)" d="M56.63 40.795c-.772-.653.118-3.146-.713-3.324-.593-.178-1.365 1.365-1.484 1.78-.356 1.425-.356 2.969-.297 4.393.06 1.128-.178 2.612.653 3.562.297.356 2.315-5.995 1.84-6.411Z" opacity=".7" style="mix-blend-mode:multiply"/>
  <path fill="url(#l)" d="M78.89 23.402c-5.046-1.424-8.786-5.698-12.288-9.141-2.256-2.196-4.393-4.57-6.648-6.827-1.366-1.365-2.672-2.79-3.562-4.452.297 1.662 1.425 4.156 1.78 4.452C68.68 16.16 73.845 22.75 73.845 22.75s4.215 1.425 5.046.653Z" opacity=".4" style="mix-blend-mode:screen"/>
  <path fill="url(#m)" d="M50.812 10.937h.713c-.238-.356-2.612-1.484-5.165-2.434C40.9 10.64 12.762 11.71 6.826 10.64c.594.653 1.188 1.128 1.425 1.069.712-.06 33.835-1.722 42.561-.772Z" opacity=".4" style="mix-blend-mode:screen"/>
  <path fill="url(#n)" d="M55.62 8.444c-.83-.475-1.187-1.484-1.484-2.256a22.276 22.276 0 0 1-.415-1.543c-.119.95-.178 1.721-.119 2.077.238 1.01.89 4.215 1.84 4.215.535 0 .713-1.306.772-2.256a1.866 1.866 0 0 1-.594-.237Z" opacity=".7" style="mix-blend-mode:multiply"/>
  <path fill="#fff" d="M69.273 17.704c-.712-.475-1.068-5.818-1.068-5.818s-.238 5.343-.95 5.818c-.89.534-5.164.653-5.164.653s5.223.415 5.46.89c.476.712.654 6.233.654 6.233s.475-5.64.89-6.41c.297-.476 5.58-.713 5.58-.713s-4.511-.119-5.402-.653Z"/>
  <defs>
    <linearGradient id="a" x1="54.075" x2="54.075" y1="5.799" y2="42.419" gradientUnits="userSpaceOnUse">
      <stop stop-color="#fff"/>
      <stop offset="1" stop-color="#730EFF"/>
    </linearGradient>
    <linearGradient id="b" x1="35.017" x2="20.643" y1="50.201" y2="7.924" gradientUnits="userSpaceOnUse">
      <stop stop-color="#730EFF"/>
      <stop offset="1" stop-color="#fff"/>
    </linearGradient>
    <linearGradient id="c" x1="87.785" x2="-16.104" y1="66.558" y2="73.935" gradientUnits="userSpaceOnUse">
      <stop stop-color="#730EFF"/>
      <stop offset="1" stop-color="#fff"/>
    </linearGradient>
    <linearGradient id="d" x1="84.367" x2="50.501" y1="47.118" y2="49.523" gradientUnits="userSpaceOnUse">
      <stop stop-color="#730EFF"/>
      <stop offset="1" stop-color="#fff"/>
    </linearGradient>
    <linearGradient id="e" x1="58.159" x2="52.193" y1="5.943" y2="6.367" gradientUnits="userSpaceOnUse">
      <stop stop-color="#730EFF"/>
      <stop offset="1" stop-color="#fff"/>
    </linearGradient>
    <linearGradient id="f" x1="91.719" x2="48.823" y1="23.329" y2="26.375" gradientUnits="userSpaceOnUse">
      <stop stop-color="#730EFF"/>
      <stop offset="1" stop-color="#fff"/>
    </linearGradient>
    <linearGradient id="g" x1="88.635" x2="5.482" y1="225.143" y2="231.046" gradientUnits="userSpaceOnUse">
      <stop stop-color="#730EFF"/>
      <stop offset="1" stop-color="#fff"/>
    </linearGradient>
    <linearGradient id="h" x1="66.536" x2="25.453" y1="39.406" y2="42.323" gradientUnits="userSpaceOnUse">
      <stop stop-color="#730EFF"/>
      <stop offset="1" stop-color="#fff"/>
    </linearGradient>
    <linearGradient id="i" x1="58.723" x2="-13.131" y1="21.317" y2="26.419" gradientUnits="userSpaceOnUse">
      <stop stop-color="#730EFF"/>
      <stop offset="1" stop-color="#fff"/>
    </linearGradient>
    <linearGradient id="j" x1="315.132" x2="-649.559" y1="146.182" y2="214.68" gradientUnits="userSpaceOnUse">
      <stop stop-color="#730EFF"/>
      <stop offset="1" stop-color="#fff"/>
    </linearGradient>
    <linearGradient id="k" x1="73.009" x2="11.265" y1="41.502" y2="45.887" gradientUnits="userSpaceOnUse">
      <stop stop-color="#730EFF"/>
      <stop offset="1" stop-color="#fff"/>
    </linearGradient>
    <linearGradient id="l" x1="91.714" x2="48.993" y1="24.639" y2="27.672" gradientUnits="userSpaceOnUse">
      <stop stop-color="#730EFF"/>
      <stop offset="1" stop-color="#fff"/>
    </linearGradient>
    <linearGradient id="m" x1="95.461" x2="9.783" y1="313.772" y2="319.857" gradientUnits="userSpaceOnUse">
      <stop stop-color="#730EFF"/>
      <stop offset="1" stop-color="#fff"/>
    </linearGradient>
    <linearGradient id="n" x1="58.022" x2="52.417" y1="8.21" y2="8.608" gradientUnits="userSpaceOnUse">
      <stop stop-color="#730EFF"/>
      <stop offset="1" stop-color="#fff"/>
    </linearGradient>
  </defs>
    </symbol>
    <symbol id="icon-yellow-circle" viewBox="0 0 72 72">
    <mask id="a" width="72" height="72" x="0" y="0" maskUnits="userSpaceOnUse" style="mask-type:luminance">
    <path fill="#fff" d="M36 71.063c19.364 0 35.063-15.699 35.063-35.063C71.063 16.636 55.364.937 36 .937 16.636.938.937 16.636.937 36 .938 55.364 16.636 71.063 36 71.063Z"/>
  </mask>
  <g mask="url(#a)">
    <path fill="#FFC400" d="M71.296 36c-5.142 1.87-11.22 2.805-16.362.935-6.078-2.338-13.09-4.675-18.7-.935 5.142-5.61 13.09-7.48 20.102-5.142 4.675-.468 9.818-1.87 13.558-5.143.935 3.273 1.402 7.012 1.402 10.285Z"/>
    <path fill="#FFF8E1" d="M36.234 36c5.142-1.87 10.752-2.805 15.895-.935 6.077 2.338 13.09 4.675 19.167.935.468 2.338-.467 5.143-.467 7.48-.468 1.403-1.403 2.805-1.403 4.208-6.545 0-12.622-2.338-17.297-7.48-4.208-3.74-10.285-5.61-15.895-4.208Z"/>
    <path fill="#FFF8E1" d="M69.426 26.183c-2.805 1.87-6.077 4.207-9.817 4.207-7.948 0-17.765-1.87-23.375 5.61 3.272-7.948 11.687-11.22 20.102-12.622 4.208-.936 7.013-3.74 9.35-7.013 1.403 3.273 2.805 6.545 3.74 9.818Z"/>
    <path fill="#FFC400" d="M69.426 48.155c-1.87 3.273-3.272 7.013-6.077 9.818-3.74-1.403-7.48-3.74-9.818-7.48-1.87-3.74-3.74-7.013-6.545-9.818-3.272-2.805-7.012-4.207-11.22-4.675 8.883-1.402 16.363 3.74 23.375 9.35 2.805 2.338 6.545 2.805 10.285 2.805ZM65.219 16.832c-4.675 6.078-12.623 7.48-19.635 9.818-4.208 1.402-7.48 5.143-9.818 9.35 1.403-6.078 4.675-11.688 9.818-14.96 5.61-3.273 10.752-6.545 12.622-12.623 2.805 2.338 5.143 5.143 7.013 8.415Z"/>
    <path fill="#FFF8E1" d="M63.816 58.44c-2.337 2.805-5.61 4.675-8.882 7.013 0-1.403-1.403-.936-1.87-1.87-.935-1.403-1.87-2.805-3.273-4.208-2.337-3.74-2.337-7.48-3.272-11.688-1.403-5.142-5.61-9.35-10.285-11.687 5.61.468 9.817 3.74 13.09 7.48 4.675 5.61 7.48 12.623 14.492 14.96ZM57.738 8.417c-1.87 7.48-9.35 10.286-15.427 14.96-3.74 3.273-5.61 7.48-6.078 12.623-1.402-8.883 3.273-16.363 9.35-22.907 2.338-2.806 2.805-7.013 2.805-10.753 3.273 1.402 6.545 3.74 9.35 6.077Z"/>
    <path fill="#FFC400" d="M55.401 65.453c-.935.934-1.87 1.402-3.272 1.87-.935.467-2.338.467-3.273 1.402-.935.468-2.805.935-2.805.468-5.61-5.61-4.207-14.026-4.207-21.505 0-4.675-2.338-8.883-6.078-11.688 7.013 3.273 11.22 10.285 12.155 18.233l1.403 4.207c1.87 2.805 3.272 5.143 6.077 7.013ZM47.453 2.808c.935 3.74 0 7.947-2.337 11.687-2.337 3.272-5.61 6.078-7.48 9.35-1.87 3.74-1.87 7.948-1.87 12.155-3.273-8.415-.468-16.83 1.87-24.777.935-3.273.935-7.48-1.87-10.286 3.74 0 7.948 0 11.688 1.87Z"/>
    <path fill="#FFF8E1" d="M46.051 69.66c-3.273.935-7.013 1.403-10.285 1.87-2.805-7.48-1.402-15.895 1.87-22.907 1.402-4.208.467-8.883-1.403-12.623 3.273 3.74 6.078 8.415 6.078 13.557-.468 3.273-.935 6.078-.935 9.35.468 4.208 1.87 7.48 4.675 10.753Z"/>
    <path fill="#FFC400" d="M36.233 36c3.273 8.415.468 16.83-1.87 24.778-1.402 3.74 0 7.48 1.403 10.752-3.74-.935-7.48 0-11.22-2.338-.935-3.74 0-8.414 2.338-11.687 5.142-6.545 11.22-13.09 8.882-21.505h.468Z"/>
    <path fill="#FFF8E1" d="M35.766.938c2.805 3.74 2.338 8.882 1.403 13.557-.468 2.805-1.403 6.078-2.805 8.883-1.403 4.207-.468 8.882 1.402 12.622-3.272-3.74-6.077-8.415-6.077-13.557.467-3.273.935-6.078.935-9.35-.468-4.208-1.87-7.48-4.675-10.753C29.22 1.405 32.494.47 35.766.938Z"/>
    <path fill="#FFC400" d="M26.416 2.34c4.208 6.545 3.74 14.492 3.74 21.973 0 4.675 2.338 8.882 6.078 11.687-7.013-3.273-11.22-10.285-12.155-18.233l-1.403-4.207c-1.87-2.805-3.272-5.143-6.077-7.013.935-.935 1.87-1.402 3.272-1.87.935-.467 2.338-.467 3.273-1.402.935-.468 2.337-.468 3.272-.935Z"/>
    <path fill="#FFF8E1" d="M17.066 7.015c.468.467 1.403.935 1.87 1.402.935 1.403 1.87 2.806 3.273 4.208 2.337 3.74 2.337 7.948 3.272 11.688 1.87 5.142 5.143 9.817 10.753 11.687-5.61-.468-10.285-3.273-13.558-7.48-4.675-5.61-7.48-12.622-14.492-14.96 2.337-2.805 5.61-4.675 8.882-7.013v.468ZM36.234 36c.467 8.883-3.74 16.362-9.818 22.907-2.337 2.806-2.805 7.013-2.805 10.753-3.272-1.403-6.545-3.74-9.35-6.077 1.87-7.48 9.35-10.285 15.428-14.96 3.74-3.273 5.61-7.48 6.077-12.623h.468Z"/>
    <path fill="#FFC400" d="M35.766 36c-.467 6.545-4.207 11.688-9.35 14.96-5.61 3.273-10.752 6.545-12.622 12.623-2.805-2.338-5.143-5.143-7.013-8.416 4.675-6.077 12.623-7.012 19.635-9.817 4.208-1.403 7.948-4.675 9.35-9.35Z"/>
    <path fill="#FFF8E1" d="M35.766 36c-3.272 7.947-11.687 11.22-20.102 12.623-4.208.934-7.013 3.74-9.35 7.012-1.403-3.273-2.805-6.545-3.74-9.817 2.805-1.87 6.077-3.74 9.817-4.208 5.61-.468 10.753.935 16.363-.468 2.805-.934 5.142-3.272 7.48-5.142h-.468Z"/>
    <path fill="#FFC400" d="M36.234 36c-5.61 5.143-13.09 7.48-20.57 5.143-4.675.467-9.818 1.87-13.558 5.142C1.171 43.013.704 39.273.704 36c5.142-1.87 11.22-2.805 16.362-.935 6.078 2.805 13.09 4.675 19.168.935Z"/>
    <path fill="#FFF8E1" d="M36.233 36c-5.142 1.87-11.22 2.805-16.362.935C13.794 34.597 6.781 32.26.703 36c-.467-2.337.468-5.142.468-7.48.467-1.402 1.402-2.805 1.402-4.207 6.545 0 12.623 2.337 17.298 7.48C24.078 36 30.156 37.403 36.234 36Z"/>
    <path fill="#FFC400" d="M36.234 36c-8.883 1.403-16.363-3.74-23.375-9.35-2.805-2.337-6.545-2.805-10.285-2.805 1.87-3.272 3.272-7.012 6.077-9.817 3.74 1.402 7.48 3.74 9.818 7.48 2.337 4.207 4.207 8.415 8.415 11.22 2.805 1.402 5.61 2.804 8.882 3.272h.468Z"/>
  </g>
    </symbol>
    <symbol id="icon-red-circle" viewBox="0 0 72 72">
    <mask id="a" width="72" height="72" x="0" y="0" maskUnits="userSpaceOnUse" style="mask-type:luminance">
    <path fill="#fff" d="M36 71.063c19.364 0 35.063-15.699 35.063-35.063C71.063 16.636 55.364.937 36 .937 16.636.938.937 16.636.937 36 .938 55.364 16.636 71.063 36 71.063Z"/>
  </mask>
  <g mask="url(#a)">
    <path fill="#F52C44" d="M71.296 36c-5.142 1.87-11.22 2.805-16.362.935-6.078-2.338-13.09-4.675-18.7-.935 5.142-5.61 13.09-7.48 20.102-5.142 4.675-.468 9.818-1.87 13.558-5.143.935 3.273 1.402 7.012 1.402 10.285Z"/>
    <path fill="#FEE8E8" d="M35.766 36c5.143-1.87 11.22-2.805 16.363-.935 6.077 2.338 13.09 4.675 19.167.935.468 2.338-.467 5.143-.467 7.48-.468 1.403-1.403 2.805-1.403 4.208-6.545 0-12.622-2.338-17.297-7.48-4.208-3.74-10.285-5.61-15.895-4.208h-.468Z"/>
    <path fill="#FEE8E8" d="M69.426 26.183c-2.805 1.87-6.077 4.207-9.817 4.207-7.948 0-17.765-1.87-23.375 5.61 3.272-7.948 11.687-11.22 20.102-12.622 4.208-.936 7.013-3.74 9.35-7.013 1.403 3.273 2.805 6.545 3.74 9.818Z"/>
    <path fill="#F52C44" d="M69.426 48.155c-1.87 3.273-3.272 7.013-6.077 9.818-3.74-1.403-7.48-3.74-9.818-7.48-1.87-3.74-3.74-7.013-6.545-9.818-3.272-2.805-7.012-4.207-11.22-4.675 8.883-1.402 16.363 3.74 23.375 9.35 2.805 2.338 6.545 2.805 10.285 2.805ZM65.219 16.832c-4.675 6.078-12.623 7.48-19.635 9.818-4.208 1.402-7.48 5.143-9.818 9.35 1.403-6.078 4.675-11.688 9.818-14.96 5.61-3.273 10.752-6.545 12.622-12.623 2.805 2.338 5.143 5.143 7.013 8.415Z"/>
    <path fill="#FEE8E8" d="M63.816 58.44c-2.337 2.805-5.61 4.675-8.882 7.013 0-1.403-1.403-.936-1.87-1.87-.935-1.403-1.87-2.805-3.273-4.208-2.337-3.74-2.337-7.947-3.272-11.688-1.87-5.142-5.143-9.817-10.753-11.687 5.61.468 10.285 3.273 13.558 7.48 4.675 5.61 7.48 12.623 14.492 14.96ZM57.739 8.417c-1.87 7.48-9.35 10.286-15.428 14.96-3.74 3.273-5.61 7.48-6.077 12.623-1.403-8.883 3.272-16.363 9.35-22.907 2.337-2.806 2.805-7.013 2.805-10.753 3.272 1.402 6.545 3.74 9.35 6.077Z"/>
    <path fill="#F52C44" d="M55.401 65.453c-.935.934-1.87 1.402-3.272 1.87-.935.467-2.338.467-3.273 1.402-.935.468-2.805.935-2.805.468-5.61-5.61-4.207-14.026-4.207-21.505 0-4.675-2.338-8.883-6.078-11.688 7.013 3.273 11.22 10.285 12.155 18.233l1.403 4.207c1.87 2.805 3.272 5.143 6.077 7.013ZM47.454 2.808c.935 3.74 0 8.415-2.338 11.687-5.142 6.545-11.22 13.09-8.882 21.505-4.208-7.948-.468-16.83 1.402-24.777.935-3.273.935-7.48-1.87-10.286 3.74 0 7.948 0 11.688 1.87Z"/>
    <path fill="#FEE8E8" d="M46.051 69.66c-3.272.935-7.012 1.403-10.285 1.87-2.805-7.48-1.402-15.895 1.87-22.907 1.403-4.208.468-8.883-1.402-12.623 3.272 3.74 6.077 8.415 6.077 13.557-.467 3.273-.935 6.078-.935 9.35.468 4.208 1.87 7.48 4.675 10.753Z"/>
    <path fill="#F52C44" d="M35.766 36c4.208 7.947.468 16.83-1.402 24.778-1.403 3.74 0 7.48 1.402 10.752-3.74-.935-7.48 0-11.22-2.338-.935-3.74 0-8.414 2.338-11.687 5.142-6.545 11.22-13.09 8.882-21.505Z"/>
    <path fill="#FEE8E8" d="M36.233.938c2.806 7.48 1.403 15.427-1.87 22.44-1.402 4.207-.467 8.882 1.403 12.622-3.273-3.74-6.077-8.415-6.077-13.557.467-3.273.934-6.078.934-9.35-.467-4.208-1.87-7.48-4.675-10.753C29.221 1.405 32.493.47 36.233.938Z"/>
    <path fill="#F52C44" d="M26.416 2.34c4.208 6.545 4.208 14.492 3.74 21.973 0 4.207 2.338 8.415 5.61 11.687-6.545-3.74-11.22-10.285-11.687-18.233l-1.403-4.207c-1.87-2.805-3.272-5.143-6.077-7.013.935-.935 1.87-1.402 3.272-1.87.935-.467 2.338-.467 3.273-1.402.935-.468 2.337-.468 3.272-.935Z"/>
    <path fill="#FEE8E8" d="M17.066 7.015c.468.467 1.403.935 1.87 1.402.935 1.403 1.87 2.806 3.273 4.208 2.337 3.74 2.337 7.48 3.272 11.688 1.403 5.142 5.61 9.35 10.285 11.687-5.61-.468-9.817-3.74-13.09-7.48-4.675-5.61-7.48-12.622-14.492-14.96 2.337-2.805 5.61-4.675 8.882-7.013v.468ZM35.766 36c1.403 8.883-3.273 16.362-9.35 22.907-2.338 2.806-2.805 7.013-2.805 10.753-3.273-1.403-6.545-3.74-9.35-6.077 1.87-7.48 9.35-10.285 15.428-14.96 3.74-3.273 5.61-7.48 6.077-12.623Z"/>
    <path fill="#F52C44" d="M35.766 36c-.467 6.545-4.207 11.688-9.35 14.96-5.61 3.273-10.752 6.545-12.622 12.623-2.805-2.338-5.143-5.143-7.013-8.416 4.675-6.077 12.623-7.48 19.635-9.817 4.208-1.403 7.48-5.142 9.818-9.35h-.468Z"/>
    <path fill="#FEE8E8" d="M35.766 36c-3.273 7.947-11.688 11.22-20.102 12.623-4.208.934-7.013 3.74-9.35 7.012-1.403-3.273-2.805-6.545-3.74-9.817 2.805-1.87 6.077-3.74 9.817-4.208 5.61-.468 10.752.935 16.362-.468 2.805-.934 5.143-3.272 7.48-5.142h-.467Z"/>
    <path fill="#F52C44" d="M35.766 36c-5.142 5.61-13.09 7.48-20.102 5.143-4.675.467-9.818 1.87-13.558 5.142C1.171 43.013.704 39.273.704 36c5.142-1.87 11.22-2.805 16.362-.935 6.078 2.805 13.09 4.675 19.168.935h-.468Z"/>
    <path fill="#FEE8E8" d="M36.234 36c-5.143 1.87-11.22 2.805-16.363.935C13.794 34.597 6.781 32.26.704 36c-.468-2.337.467-5.142.467-7.48.468-1.402 1.403-2.805 1.403-4.207 6.545 0 12.622 2.337 17.297 7.48 4.208 3.74 10.285 5.61 15.895 4.207h.468Z"/>
    <path fill="#F52C44" d="M36.233 36c-8.882 1.403-16.362-3.74-23.374-9.35-2.806-2.337-6.545-2.805-10.285-2.805 1.87-3.272 3.272-7.012 6.077-9.817 3.74 1.402 7.48 3.74 9.817 7.48 1.87 3.74 3.74 7.012 6.546 9.817 3.272 2.805 7.012 4.207 11.22 4.675Z"/>
  </g>
    </symbol>
  </defs>
</svg>
